<?xml version="1.0" encoding="UTF-8"?>
<!DOCTYPE svg PUBLIC "-//W3C//DTD SVG 1.0//EN" "http://www.w3.org/TR/2001/REC-SVG-20010904/DTD/svg10.dtd">
<!-- Creator: CorelDRAW -->
<svg xmlns="http://www.w3.org/2000/svg" xml:space="preserve" width="500px" height="500px" version="1.0" shape-rendering="geometricPrecision" text-rendering="geometricPrecision" image-rendering="optimizeQuality" fill-rule="evenodd" clip-rule="evenodd"
viewBox="0 0 500 500"
 xmlns:xlink="http://www.w3.org/1999/xlink"
 xmlns:xodm="http://www.corel.com/coreldraw/odm/2003">
 <g id="Camada_x0020_1">
  <metadata id="CorelCorpID_0Corel-Layer"/>
  <g id="_1819988936384">
   <path id="chat-118.svg" fill="#6ee7b7" fill-rule="nonzero" d="M37.175 423.977c3.157,-0.002 6.253,-0.863 8.958,-2.488l75.64 -45.228c25.856,9.773 53.339,14.783 80.99,14.783 0.251,0 0.559,0 0.811,0 112.251,0 203.578,-78.864 203.578,-175.8 0.003,-96.938 -91.325,-175.802 -203.575,-175.802 -112.25,0 -203.577,78.864 -203.577,175.8 0,42.763 17.553,83.218 49.718,115.169l-28.761 68.933c-2.941,7.057 -1.063,15.224 4.648,20.256 3.28,2.895 7.408,4.377 11.57,4.377l0 0z"/>
   <path id="chat-118.svg_7" fill="white" fill-rule="nonzero" d="M218.056 246.425c-0.054,-10.167 -8.315,-18.383 -18.482,-18.383 -0.003,0 -0.007,0 -0.01,0 -10.14,0.096 -18.311,8.35 -18.311,18.491 0,0.027 0,0.056 0,0.084 0,10.218 8.175,18.519 18.311,18.564 0.003,-0.001 0.007,-0.001 0.01,-0.001 10.167,0 18.428,-8.215 18.482,-18.384l0 -0.372 0 0.001zm61.207 0c0,10.49 -8.437,19 -18.837,19 -10.412,-0.048 -18.828,-8.506 -18.828,-18.918 0,-0.026 0,-0.056 0,-0.081 0,-0.028 0,-0.058 0,-0.083 0,-10.412 8.416,-18.87 18.828,-18.919 10.414,0.044 18.837,8.504 18.837,18.919 0,0.025 0,0.055 0,0.081l0 0.001zm61.198 0c-0.054,-10.167 -8.315,-18.383 -18.483,-18.383 -0.002,0 -0.007,0 -0.009,0 -10.14,0.096 -18.311,8.35 -18.311,18.491 0,0.027 0,0.056 0,0.084 0,10.218 8.175,18.519 18.311,18.564 0,-0.001 0,-0.001 0,-0.001 10.164,0 18.424,-8.211 18.483,-18.374l0 -0.373 0.009 -0.008z"/>
   <path id="chat-118.svg_8" fill="#0ea5e9" fill-rule="nonzero" d="M462.825 460.558c-3.157,-0.002 -6.253,-0.863 -8.958,-2.488l-75.64 -45.228c-25.856,9.773 -53.339,14.783 -80.99,14.783 -0.252,0 -0.56,0 -0.812,0 -112.25,0 -203.577,-78.864 -203.577,-175.8 -0.003,-96.938 91.324,-175.802 203.574,-175.802 112.251,0 203.578,78.864 203.578,175.8 0,42.763 -17.553,83.218 -49.718,115.169l28.761 68.933c2.941,7.058 1.063,15.223 -4.649,20.256 -3.279,2.895 -7.407,4.377 -11.569,4.377l0 0zm-83.071 -85.186c3.11,0 6.209,0.837 8.957,2.488l37.232 22.247 -12.871 -30.831c-0.911,-2.179 -1.382,-4.525 -1.382,-6.889 0,-5.164 2.24,-10.079 6.133,-13.469 30.311,-26.295 47.004,-60.779 47.004,-97.095 0,-77.359 -75.551,-140.31 -168.405,-140.31 -92.853,0 -168.403,62.951 -168.403,140.31 0,77.36 75.55,140.31 168.403,140.31 26.884,0 52.603,-5.168 76.478,-15.359 2.194,-0.938 4.524,-1.402 6.854,-1.402z"/>
  </g>
 </g>
</svg>
